<svg xmlns="http://www.w3.org/2000/svg" viewBox="0 0 24 24" id="Style-Three-Pin-Climb-Rope--Streamline-Ultimate.svg" height="24" width="24"><desc>Style Three Pin Climb Rope Streamline Icon: https://streamlinehq.com</desc><defs></defs><title>style-three-pin-climb-rope</title><path d="M12 0.5a11.38 11.38 0 0 1 6.112 1.77c4.75 3.011 5.1 9.23 1.315 13.777A57.572 57.572 0 0 1 12 23.5a57.572 57.572 0 0 1 -7.427 -7.453C0.789 11.5 1.138 5.281 5.888 2.27A11.38 11.38 0 0 1 12 0.5Z" fill="#dff9ff" stroke-width="1"></path><path d="M12 23.5a57.572 57.572 0 0 1 -7.427 -7.453C0.789 11.5 1.138 5.281 5.888 2.27A11.38 11.38 0 0 1 12 0.5Z" fill="#ffffff" stroke-width="1"></path><path d="M12 0.5a11.38 11.38 0 0 1 6.112 1.77c4.75 3.011 5.1 9.23 1.315 13.777A57.572 57.572 0 0 1 12 23.5a57.572 57.572 0 0 1 -7.427 -7.453C0.789 11.5 1.138 5.281 5.888 2.27A11.38 11.38 0 0 1 12 0.5Z" stroke="#00303e" stroke-linecap="round" stroke-linejoin="round" fill="none" stroke-width="1"></path><path d="M8 5.5a2 2 0 1 0 4 0 2 2 0 1 0 -4 0" fill="#9feaff" stroke="#00303e" stroke-linecap="round" stroke-linejoin="round" stroke-width="1"></path><path d="M16 17.5a1 1 0 0 1 -0.9 -0.553l-0.718 -1.447H11a1 1 0 0 1 -0.97 -0.758l-1 -3.5a1 1 0 0 1 0.576 -1.161l3.269 -1.4 1.345 -1.8a1 1 0 1 1 1.561 1.25l-1.5 2a1 1 0 0 1 -0.387 0.294L11.5 11.5l1 2H15a1 1 0 0 1 0.895 0.553l1 2A1 1 0 0 1 16 17.5Z" fill="#9feaff" stroke="#00303e" stroke-linecap="round" stroke-linejoin="round" stroke-width="1"></path><path d="m14 2.5 0 4.67" stroke="#00303e" stroke-linecap="round" stroke-linejoin="round" fill="none" stroke-width="1"></path><path d="M9.729 13.688A6.241 6.241 0 0 0 8 18" stroke="#00303e" stroke-linecap="round" stroke-linejoin="round" fill="none" stroke-width="1"></path></svg>