<svg xmlns="http://www.w3.org/2000/svg" viewBox="0 0 24 24" id="Human-Resources-Network--Streamline-Ultimate.svg" height="24" width="24"><desc>Human Resources Network Streamline Icon: https://streamlinehq.com</desc><defs></defs><path d="M0.494 9.769a9.264 9.264 0 1 0 18.528 0 9.264 9.264 0 1 0 -18.528 0" fill="#dff9ff" stroke-width="1"></path><path d="M9.758 15.274A9.266 9.266 0 0 1 0.686 7.889a9.265 9.265 0 1 0 18.337 1.88 9.315 9.315 0 0 0 -0.192 -1.88 9.267 9.267 0 0 1 -9.073 7.385Z" fill="#9feaff" stroke-width="1"></path><path d="M11.5 23.5a5.78 5.78 0 0 1 6 -6 5.778 5.778 0 0 1 6 6Z" stroke="#00303e" stroke-linecap="round" stroke-linejoin="round" fill="#9feaff" stroke-width="1"></path><path d="M21.493 11.813a4.537 4.537 0 0 1 -2.38 0.68 5.54 5.54 0 0 1 -4.66 -3.09 4 4 0 0 1 7.04 2.41Z" fill="#9feaff" stroke="#00303e" stroke-linecap="round" stroke-linejoin="round" stroke-width="1"></path><path d="M21.5 11.993a4 4 0 1 1 -7.05 -2.59 5.54 5.54 0 0 0 4.66 3.09 4.537 4.537 0 0 0 2.38 -0.68 1.087 1.087 0 0 1 0.01 0.18Z" fill="#dff9ff" stroke="#00303e" stroke-linecap="round" stroke-linejoin="round" stroke-width="1"></path><path d="M21.5 11.8a0.01 0.01 0 0 0 -0.01 0.01" fill="none" stroke="#00303e" stroke-linecap="round" stroke-linejoin="round" stroke-width="1"></path><path d="M1.737 14.493h9.775" fill="none" stroke="#00303e" stroke-linecap="round" stroke-linejoin="round" stroke-width="1"></path><path d="M2.135 4.493h15.247" fill="none" stroke="#00303e" stroke-linecap="round" stroke-linejoin="round" stroke-width="1"></path><path d="M12.012 9.493H0.5" fill="none" stroke="#00303e" stroke-linecap="round" stroke-linejoin="round" stroke-width="1"></path><path d="M9.012 19A9.052 9.052 0 0 1 0.5 9.754 9.263 9.263 0 0 1 18.431 6.5" fill="none" stroke="#00303e" stroke-linecap="round" stroke-linejoin="round" stroke-width="1"></path><path d="M8.983 0.523c-4.8 5.228 -4.791 12.043 0.029 18.469" fill="none" stroke="#00303e" stroke-linecap="round" stroke-linejoin="round" stroke-width="1"></path><path d="M10.542 0.523a12.971 12.971 0 0 1 3.339 6.967" fill="none" stroke="#00303e" stroke-linecap="round" stroke-linejoin="round" stroke-width="1"></path></svg>