<svg xmlns="http://www.w3.org/2000/svg" viewBox="0 0 24 24" id="Video-Game-Mario-3--Streamline-Ultimate.svg" height="24" width="24"><desc>Video Game Mario 3 Streamline Icon: https://streamlinehq.com</desc><defs></defs><title>video-game-mario-3</title><path d="M3.5 11.5H3a2.5 2.5 0 0 0 0 5h0.632" stroke="#00303e" stroke-linecap="round" stroke-linejoin="round" fill="#9feaff" stroke-width="1"></path><path d="M20.5 11.5h0.5a2.5 2.5 0 0 1 0 5h-0.632" stroke="#00303e" stroke-linecap="round" stroke-linejoin="round" fill="#9feaff" stroke-width="1"></path><path d="M20.5 10.5a5.528 5.528 0 0 0 2 -4.25A5.75 5.75 0 0 0 16.75 0.5h-9.5A5.75 5.75 0 0 0 1.5 6.25a5.509 5.509 0 0 0 2 4.25Z" fill="#9feaff" stroke-width="1"></path><path d="M7.25 3.5h9.5a5.751 5.751 0 0 1 5.55 4.236 5.493 5.493 0 0 0 0.2 -1.486A5.75 5.75 0 0 0 16.75 0.5h-9.5A5.75 5.75 0 0 0 1.5 6.25a5.5 5.5 0 0 0 0.2 1.488A5.753 5.753 0 0 1 7.25 3.5Z" fill="#dff9ff" stroke-width="1"></path><path d="M20.5 10.5a5.528 5.528 0 0 0 2 -4.25A5.75 5.75 0 0 0 16.75 0.5h-9.5A5.75 5.75 0 0 0 1.5 6.25a5.509 5.509 0 0 0 2 4.25Z" fill="none" stroke="#00303e" stroke-linecap="round" stroke-linejoin="round" stroke-width="1"></path><path d="m9 5.5 1.5 -3 1.5 2 1.5 -2 1.5 3" fill="none" stroke="#00303e" stroke-linecap="round" stroke-linejoin="round" stroke-width="1"></path><path d="M3.5 10.5V15a8.5 8.5 0 0 0 17 0v-4.5Z" fill="#dff9ff" stroke-width="1"></path><path d="M3.5 10.5h17v2h-17Z" fill="#9feaff" stroke-width="1"></path><path d="M3.5 10.5V15a8.5 8.5 0 0 0 17 0v-4.5Z" fill="none" stroke="#00303e" stroke-linecap="round" stroke-linejoin="round" stroke-width="1"></path><path d="m8.5 13 0 1" fill="none" stroke="#00303e" stroke-linecap="round" stroke-linejoin="round" stroke-width="1"></path><path d="m15.5 13 0 1" fill="none" stroke="#00303e" stroke-linecap="round" stroke-linejoin="round" stroke-width="1"></path><path d="M14.835 16.34a0.866 0.866 0 0 0 -0.933 0.567A2.144 2.144 0 0 1 12 18.5a2.147 2.147 0 0 1 -1.9 -1.593 0.866 0.866 0 0 0 -0.933 -0.567L6 16.682l0.513 1.367a1.338 1.338 0 0 0 2.25 0.431l0.49 0.885A1.557 1.557 0 0 0 12 19.5a1.557 1.557 0 0 0 2.747 -0.135l0.49 -0.885a1.338 1.338 0 0 0 2.25 -0.431L18 16.682Z" fill="#9feaff" stroke="#00303e" stroke-linecap="round" stroke-linejoin="round" stroke-width="1"></path><path d="M20.5 10.5a3 3 0 0 0 -3 -3h-11a3 3 0 0 0 -3 3Z" fill="#9feaff" stroke="#00303e" stroke-linecap="round" stroke-linejoin="round" stroke-width="1"></path></svg>