<svg xmlns="http://www.w3.org/2000/svg" viewBox="0 0 24 24" id="Science-Dna--Streamline-Ultimate.svg" height="24" width="24"><desc>Science Dna Streamline Icon: https://streamlinehq.com</desc><defs></defs><title>science-dna</title><path d="M17.3 6.69A8.122 8.122 0 0 1 6.7 17.3Z" fill="#9feaff" stroke-width="1"></path><path d="M6.7 17.3A8.122 8.122 0 0 1 17.3 6.69Z" fill="#dff9ff" stroke-width="1"></path><path d="M17.13 0.87a7.921 7.921 0 0 0 0.17 5.82 7.948 7.948 0 0 0 5.813 0.18Z" fill="#9feaff" stroke-width="1"></path><path d="M0.884 17.121A7.945 7.945 0 0 1 6.7 17.3a7.946 7.946 0 0 1 0.17 5.83Z" fill="#9feaff" stroke-width="1"></path><path d="M19.611 7.292a7.959 7.959 0 0 0 3.5 -0.421" fill="none" stroke="#00303e" stroke-linecap="round" stroke-linejoin="round" stroke-width="1"></path><path d="M6.868 23.131A7.952 7.952 0 0 0 6.7 17.3a8.11 8.11 0 0 1 1.764 -8.84 8.2 8.2 0 0 1 6.673 -2.339" fill="none" stroke="#00303e" stroke-linecap="round" stroke-linejoin="round" stroke-width="1"></path><path d="M9.137 17.9a8.206 8.206 0 0 0 6.4 -2.365A8.114 8.114 0 0 0 17.3 6.692a7.949 7.949 0 0 1 -0.171 -5.823" fill="none" stroke="#00303e" stroke-linecap="round" stroke-linejoin="round" stroke-width="1"></path><path d="M0.884 17.121a7.954 7.954 0 0 1 3.728 -0.4" fill="none" stroke="#00303e" stroke-linecap="round" stroke-linejoin="round" stroke-width="1"></path><path d="m12.606 6.238 5.152 5.152" fill="none" stroke="#00303e" stroke-linecap="round" stroke-linejoin="round" stroke-width="1"></path><path d="m16.821 1.968 5.207 5.206" fill="none" stroke="#00303e" stroke-linecap="round" stroke-linejoin="round" stroke-width="1"></path><path d="m1.972 16.817 5.207 5.207" fill="none" stroke="#00303e" stroke-linecap="round" stroke-linejoin="round" stroke-width="1"></path><path d="m9.625 7.5 6.872 6.871" fill="none" stroke="#00303e" stroke-linecap="round" stroke-linejoin="round" stroke-width="1"></path><path d="m6.242 12.601 5.152 5.153" fill="none" stroke="#00303e" stroke-linecap="round" stroke-linejoin="round" stroke-width="1"></path><path d="m7.503 9.621 6.872 6.871" fill="none" stroke="#00303e" stroke-linecap="round" stroke-linejoin="round" stroke-width="1"></path></svg>