<svg xmlns="http://www.w3.org/2000/svg" viewBox="0 0 24 24" id="Video-Game-Gamasutra--Streamline-Ultimate.svg" height="24" width="24"><desc>Video Game Gamasutra Streamline Icon: https://streamlinehq.com</desc><defs></defs><title>video-game-gamasutra</title><path d="M10 20a0.5 0.5 0 0 0 0.5 -0.5v-1a0.5 0.5 0 0 0 -0.5 -0.5H6.5v1.5a0.5 0.5 0 0 0 0.5 0.5Z" stroke="#00303e" stroke-linecap="round" stroke-linejoin="round" fill="#9feaff" stroke-width="1"></path><path d="M13.5 19.5a0.5 0.5 0 0 0 0.5 0.5h3a0.5 0.5 0 0 0 0.5 -0.5V18H14a0.5 0.5 0 0 0 -0.5 0.5Z" stroke="#00303e" stroke-linecap="round" stroke-linejoin="round" fill="#9feaff" stroke-width="1"></path><path d="M22 12a0.5 0.5 0 0 1 -0.5 -0.5v-1a0.5 0.5 0 0 0 -0.5 -0.5h-1a0.5 0.5 0 0 1 -0.5 -0.5v-1A0.5 0.5 0 0 0 19 8h-1a0.5 0.5 0 0 1 -0.5 -0.5V6H16a0.5 0.5 0 0 0 -0.5 0.5v1a0.5 0.5 0 0 1 -0.5 0.5H9a0.5 0.5 0 0 1 -0.5 -0.5v-1A0.5 0.5 0 0 0 8 6H6.5v1.5A0.5 0.5 0 0 1 6 8H5a0.5 0.5 0 0 0 -0.5 0.5v1a0.5 0.5 0 0 1 -0.5 0.5H3a0.5 0.5 0 0 0 -0.5 0.5v1a0.5 0.5 0 0 1 -0.5 0.5H1a0.5 0.5 0 0 0 -0.5 0.5v5a0.5 0.5 0 0 0 0.5 0.5h1a0.5 0.5 0 0 0 0.5 -0.5v-3A0.5 0.5 0 0 1 3 14h1a0.5 0.5 0 0 1 0.5 0.5v3a0.5 0.5 0 0 0 0.5 0.5h1.5v-1.5A0.5 0.5 0 0 1 7 16h10a0.5 0.5 0 0 1 0.5 0.5V18H19a0.5 0.5 0 0 0 0.5 -0.5v-3a0.5 0.5 0 0 1 0.5 -0.5h1a0.5 0.5 0 0 1 0.5 0.5v3a0.5 0.5 0 0 0 0.5 0.5h1a0.5 0.5 0 0 0 0.5 -0.5v-5a0.5 0.5 0 0 0 -0.5 -0.5Z" fill="#9feaff" stroke-width="1"></path><path d="M19.5 9.5v-1A0.5 0.5 0 0 0 19 8h-1a0.5 0.5 0 0 1 -0.5 -0.5V6H16a0.5 0.5 0 0 0 -0.5 0.5v1a0.5 0.5 0 0 1 -0.5 0.5H9a0.5 0.5 0 0 1 -0.5 -0.5v-1A0.5 0.5 0 0 0 8 6H6.5v1.5A0.5 0.5 0 0 1 6 8H5a0.5 0.5 0 0 0 -0.5 0.5v1a0.5 0.5 0 0 1 -0.5 0.5h16a0.5 0.5 0 0 1 -0.5 -0.5Z" fill="#dff9ff" stroke-width="1"></path><path d="M22 12a0.5 0.5 0 0 1 -0.5 -0.5v-1a0.5 0.5 0 0 0 -0.5 -0.5h-1a0.5 0.5 0 0 1 -0.5 -0.5v-1A0.5 0.5 0 0 0 19 8h-1a0.5 0.5 0 0 1 -0.5 -0.5V6H16a0.5 0.5 0 0 0 -0.5 0.5v1a0.5 0.5 0 0 1 -0.5 0.5H9a0.5 0.5 0 0 1 -0.5 -0.5v-1A0.5 0.5 0 0 0 8 6H6.5v1.5A0.5 0.5 0 0 1 6 8H5a0.5 0.5 0 0 0 -0.5 0.5v1a0.5 0.5 0 0 1 -0.5 0.5H3a0.5 0.5 0 0 0 -0.5 0.5v1a0.5 0.5 0 0 1 -0.5 0.5H1a0.5 0.5 0 0 0 -0.5 0.5v5a0.5 0.5 0 0 0 0.5 0.5h1a0.5 0.5 0 0 0 0.5 -0.5v-3A0.5 0.5 0 0 1 3 14h1a0.5 0.5 0 0 1 0.5 0.5v3a0.5 0.5 0 0 0 0.5 0.5h1.5v-1.5A0.5 0.5 0 0 1 7 16h10a0.5 0.5 0 0 1 0.5 0.5V18H19a0.5 0.5 0 0 0 0.5 -0.5v-3a0.5 0.5 0 0 1 0.5 -0.5h1a0.5 0.5 0 0 1 0.5 0.5v3a0.5 0.5 0 0 0 0.5 0.5h1a0.5 0.5 0 0 0 0.5 -0.5v-5a0.5 0.5 0 0 0 -0.5 -0.5Z" fill="none" stroke="#00303e" stroke-linecap="round" stroke-linejoin="round" stroke-width="1"></path><path d="M5 4a0.5 0.5 0 0 0 -0.5 0.5v1A0.5 0.5 0 0 0 5 6h1.5V4.5A0.5 0.5 0 0 0 6 4Z" stroke="#00303e" stroke-linecap="round" stroke-linejoin="round" fill="#9feaff" stroke-width="1"></path><path d="M19.5 4.5A0.5 0.5 0 0 0 19 4h-1a0.5 0.5 0 0 0 -0.5 0.5V6H19a0.5 0.5 0 0 0 0.5 -0.5Z" stroke="#00303e" stroke-linecap="round" stroke-linejoin="round" fill="#9feaff" stroke-width="1"></path><path d="M7 10h1s0.5 0 0.5 0.5v1s0 0.5 -0.5 0.5H7s-0.5 0 -0.5 -0.5v-1s0 -0.5 0.5 -0.5" fill="#9feaff" stroke="#00303e" stroke-linecap="round" stroke-linejoin="round" stroke-width="1"></path><path d="M16 10h1s0.5 0 0.5 0.5v1s0 0.5 -0.5 0.5h-1s-0.5 0 -0.5 -0.5v-1s0 -0.5 0.5 -0.5" fill="#9feaff" stroke="#00303e" stroke-linecap="round" stroke-linejoin="round" stroke-width="1"></path></svg>