<svg xmlns="http://www.w3.org/2000/svg" viewBox="0 0 24 24" id="Video-Game-Potion--Streamline-Ultimate.svg" height="24" width="24"><desc>Video Game Potion Streamline Icon: https://streamlinehq.com</desc><defs></defs><title>video-game-potion</title><path d="M18 1.5a1.5 1.5 0 1 0 3 0 1.5 1.5 0 1 0 -3 0" fill="#dff9ff" stroke-width="1"></path><path d="M0 13.5a1.5 1.5 0 1 0 3 0 1.5 1.5 0 1 0 -3 0" fill="#dff9ff" stroke-width="1"></path><path d="M22.5 15a8.5 8.5 0 0 0 -11.695 -7.879 1 1 0 0 1 -1.157 -0.3L8.339 5.183a0.5 0.5 0 0 0 -0.739 -0.041L4.142 8.594a0.5 0.5 0 0 0 0.041 0.745l1.637 1.309a1 1 0 0 1 0.3 1.157A8.5 8.5 0 1 0 22.5 15Z" fill="#dff9ff" stroke-width="1"></path><path d="M14 19.189a8.495 8.495 0 0 1 -8.214 -6.347 8.5 8.5 0 1 0 16.428 0A8.5 8.5 0 0 1 14 19.189Z" fill="#9feaff" stroke-width="1"></path><path d="M20.5 15a6.5 6.5 0 0 1 -13 0" fill="#dff9ff" stroke-width="1"></path><path d="M14 19.189a8.474 8.474 0 0 1 -6.369 -2.883 6.5 6.5 0 0 0 12.738 0A8.474 8.474 0 0 1 14 19.189Z" fill="#9feaff" stroke-width="1"></path><path d="M20.5 15a6.5 6.5 0 0 1 -13 0" stroke="#00303e" stroke-linecap="round" stroke-linejoin="round" fill="none" stroke-width="1"></path><path d="M7.5 15a6.5 1.5 0 1 0 13 0 6.5 1.5 0 1 0 -13 0" fill="#dff9ff" stroke-width="1"></path><path d="M19.148 14.084c0.848 0.254 1.352 0.571 1.352 0.916 0 0.828 -2.91 1.5 -6.5 1.5s-6.5 -0.672 -6.5 -1.5c0 -0.755 2.414 -1.379 5.558 -1.484" stroke="#00303e" stroke-linecap="round" stroke-linejoin="round" fill="none" stroke-width="1"></path><path d="M12 9.937a1 1 0 1 0 2 0 1 1 0 1 0 -2 0" stroke="#00303e" stroke-linecap="round" stroke-linejoin="round" fill="#9feaff" stroke-width="1"></path><path d="M15 12.937a1 1 0 1 0 2 0 1 1 0 1 0 -2 0" stroke="#00303e" stroke-linecap="round" stroke-linejoin="round" fill="#dff9ff" stroke-width="1"></path><path d="M13.75 2.5a0.25 0.25 0 0 1 0.25 0.25" stroke="#00303e" stroke-linecap="round" stroke-linejoin="round" fill="none" stroke-width="1"></path><path d="M13.5 2.75a0.25 0.25 0 0 1 0.25 -0.25" stroke="#00303e" stroke-linecap="round" stroke-linejoin="round" fill="none" stroke-width="1"></path><path d="M13.75 3a0.25 0.25 0 0 1 -0.25 -0.25" stroke="#00303e" stroke-linecap="round" stroke-linejoin="round" fill="none" stroke-width="1"></path><path d="M14 2.75a0.25 0.25 0 0 1 -0.25 0.25" stroke="#00303e" stroke-linecap="round" stroke-linejoin="round" fill="none" stroke-width="1"></path><path d="M23.25 6.687a0.25 0.25 0 0 1 0.25 0.25" stroke="#00303e" stroke-linecap="round" stroke-linejoin="round" fill="none" stroke-width="1"></path><path d="M23 6.937a0.25 0.25 0 0 1 0.25 -0.25" stroke="#00303e" stroke-linecap="round" stroke-linejoin="round" fill="none" stroke-width="1"></path><path d="M23.25 7.187a0.25 0.25 0 0 1 -0.25 -0.25" stroke="#00303e" stroke-linecap="round" stroke-linejoin="round" fill="none" stroke-width="1"></path><path d="M23.5 6.937a0.25 0.25 0 0 1 -0.25 0.25" stroke="#00303e" stroke-linecap="round" stroke-linejoin="round" fill="none" stroke-width="1"></path><path d="m19.5 0.5 0 2" stroke="#00303e" stroke-linecap="round" stroke-linejoin="round" fill="none" stroke-width="1"></path><path d="m20.5 1.5 -2 0" stroke="#00303e" stroke-linecap="round" stroke-linejoin="round" fill="none" stroke-width="1"></path><path d="m1.5 12.5 0 2" stroke="#00303e" stroke-linecap="round" stroke-linejoin="round" fill="none" stroke-width="1"></path><path d="m2.5 13.5 -2 0" stroke="#00303e" stroke-linecap="round" stroke-linejoin="round" fill="none" stroke-width="1"></path><path d="M22.5 15a8.5 8.5 0 0 0 -11.695 -7.879 1 1 0 0 1 -1.157 -0.3L8.339 5.183a0.5 0.5 0 0 0 -0.739 -0.041L4.142 8.594a0.5 0.5 0 0 0 0.041 0.745l1.637 1.309a1 1 0 0 1 0.3 1.157A8.5 8.5 0 1 0 22.5 15Z" stroke="#00303e" stroke-linecap="round" stroke-linejoin="round" fill="none" stroke-width="1"></path><path d="M7.282 5.454 6.159 3.431a1 1 0 0 0 -1.582 -0.221L2.21 5.577a1 1 0 0 0 0.221 1.582l2.023 1.123Z" fill="#9feaff" stroke-width="1"></path><path d="m5.868 6.868 1.414 -1.414 -1.123 -2.023a1 1 0 0 0 -1.582 -0.221L3.393 4.393Z" fill="#dff9ff" stroke-width="1"></path><path d="M7.282 5.454 6.159 3.431a1 1 0 0 0 -1.582 -0.221L2.21 5.577a1 1 0 0 0 0.221 1.582l2.023 1.123Z" stroke="#00303e" stroke-linecap="round" stroke-linejoin="round" fill="none" stroke-width="1"></path></svg>